<svg xmlns="http://www.w3.org/2000/svg" viewBox="0 0 43.85 28.83"><defs><style>.cls-1{fill:#004089;}</style></defs><title>アセット 1</title><g id="レイヤー_2" data-name="レイヤー 2"><g id="レイヤー_1-2" data-name="レイヤー 1"><path class="cls-1" d="M43.85,28.83l-1.11,0H0V7.4A21.34,21.34,0,0,1,7.71,8.69C7.07,9.26,6.49,9.74,6,10.26c-1.93,1.89-3.37,4-3.36,6.88a8.2,8.2,0,0,0,7.75,8.19A8.18,8.18,0,0,0,19,18.89c.8-3.51-.73-6.22-3.12-8.6-.54-.53-1.15-1-1.74-1.52,3.76-1.74,10.79-1.95,15.59,0l-1,.83a11.18,11.18,0,0,0-3.91,5.71,8.29,8.29,0,1,0,16.32.91,9.71,9.71,0,0,0-3.26-5.88c-.54-.53-1.14-1-1.81-1.59a21.76,21.76,0,0,1,7.79-1.33Z"/><path class="cls-1" d="M43.85,4.46A25.59,25.59,0,0,0,33.61,6.58a1.65,1.65,0,0,1-1.44,0,25.94,25.94,0,0,0-20.57,0,1.68,1.68,0,0,1-1.18.1A27.34,27.34,0,0,0,.62,4.46c-.2,0-.39,0-.62-.07V0H42.74l1.11,0Z"/><path class="cls-1" d="M10.85,22.48a5.26,5.26,0,0,1-4.66-2.71,5,5,0,0,1,.1-5.43,12.22,12.22,0,0,1,4.2-3.95.83.83,0,0,1,.75,0,12,12,0,0,1,4.22,3.93,5,5,0,0,1,.13,5.44A5.28,5.28,0,0,1,10.85,22.48Z"/><path class="cls-1" d="M32.24,22.46a5,5,0,0,1-4.06-2.71,5,5,0,0,1,.13-5.44,12.14,12.14,0,0,1,4.21-3.94.68.68,0,0,1,.6-.06c2.25,1.38,4.33,3,5,5.68C39,19.25,36.37,22.45,32.24,22.46Z"/></g></g></svg>