<svg xmlns="http://www.w3.org/2000/svg" viewBox="0 0 58.86 36.84"><title>アセット 1</title><g id="レイヤー_2" data-name="レイヤー 2"><g id="レイヤー_1-2" data-name="レイヤー 1"><g id="SYF05c"><path d="M51.76,27.17l2.94,2.88,3.46,3.46a1.87,1.87,0,1,1-2.64,2.62c-2-2-4.05-4-6.06-6.07A.44.44,0,0,0,48.8,30a10.66,10.66,0,1,1,4.87-8A10.49,10.49,0,0,1,51.76,27.17Zm-.47-6.11A8.25,8.25,0,1,0,43,29.28,8.23,8.23,0,0,0,51.29,21.06Z"/></g><path d="M54.22,2.64H1.32A1.32,1.32,0,0,1,1.32,0h52.9a1.32,1.32,0,0,1,0,2.64Z"/><path d="M27.45,17H1.32a1.32,1.32,0,1,1,0-2.64H27.45a1.32,1.32,0,0,1,0,2.64Z"/><path d="M27.45,31.26H1.32a1.32,1.32,0,1,1,0-2.63H27.45a1.32,1.32,0,1,1,0,2.63Z"/></g></g></svg>